<svg viewBox="0 0 48 48" xmlns="http://www.w3.org/2000/svg">
  <defs>
    <linearGradient id="g" x1="4" y1="25" x2="44" y2="25" gradientUnits="userSpaceOnUse">
      <stop offset="0" stop-color="#3b66ff"/><stop offset="0.55" stop-color="#6a54ff"/><stop offset="1" stop-color="#8b46ff"/>
    </linearGradient>
    <linearGradient id="s" x1="35" y1="2" x2="47" y2="14" gradientUnits="userSpaceOnUse">
      <stop offset="0" stop-color="#7c4dff"/><stop offset="1" stop-color="#9a45ff"/>
    </linearGradient>
    <mask id="n">
      <rect x="0" y="0" width="48" height="48" fill="#fff"/>
      <circle cx="42.5" cy="9" r="8.5" fill="#000"/>
    </mask>
  </defs>
  <g mask="url(#n)">
    <rect x="4" y="9" width="40" height="32" rx="9" fill="url(#g)"/>
    <rect x="11" y="14.5" width="26" height="21" rx="4.5" fill="#fff"/>
    <g fill="#fff">
      <rect x="6.4" y="13.8" width="2.9" height="2.9" rx="0.9"/><rect x="6.4" y="18.8" width="2.9" height="2.9" rx="0.9"/><rect x="6.4" y="23.8" width="2.9" height="2.9" rx="0.9"/><rect x="6.4" y="28.8" width="2.9" height="2.9" rx="0.9"/><rect x="6.4" y="33.8" width="2.9" height="2.9" rx="0.9"/>
      <rect x="38.7" y="13.8" width="2.9" height="2.9" rx="0.9"/><rect x="38.7" y="18.8" width="2.9" height="2.9" rx="0.9"/><rect x="38.7" y="23.8" width="2.9" height="2.9" rx="0.9"/><rect x="38.7" y="28.8" width="2.9" height="2.9" rx="0.9"/><rect x="38.7" y="33.8" width="2.9" height="2.9" rx="0.9"/>
    </g>
  </g>
  <path d="M21 20.3c0-1.08 1.18-1.74 2.1-1.17l7.7 4.8c.86.54.86 1.8 0 2.34l-7.7 4.8c-.92.57-2.1-.09-2.1-1.17V20.3z" fill="url(#g)"/>
  <path d="M41 2c.62 3.4 2.6 5.38 6 6-3.4.62-5.38 2.6-6 6-.62-3.4-2.6-5.38-6-6 3.4-.62 5.38-2.6 6-6z" fill="url(#s)"/>
  <path d="M45.6 0.8c.28 1.55 1.18 2.45 2.73 2.73-1.55.28-2.45 1.18-2.73 2.73-.28-1.55-1.18-2.45-2.73-2.73 1.55-.28 2.45-1.18 2.73-2.73z" fill="url(#s)" opacity="0.85"/>
</svg>
